%TF.GenerationSoftware,KiCad,Pcbnew,9.0.7*%
%TF.CreationDate,2026-04-09T14:49:38+05:30*%
%TF.ProjectId,LED Batman,4c454420-4261-4746-9d61-6e2e6b696361,rev?*%
%TF.SameCoordinates,Original*%
%TF.FileFunction,Drillmap*%
%TF.FilePolarity,Positive*%
%FSLAX45Y45*%
G04 Gerber Fmt 4.5, Leading zero omitted, Abs format (unit mm)*
G04 Created by KiCad (PCBNEW 9.0.7) date 2026-04-09 14:49:38*
%MOMM*%
%LPD*%
G01*
G04 APERTURE LIST*
%ADD10C,0.125000*%
%ADD11C,0.200000*%
G04 APERTURE END LIST*
D10*
X17292880Y-7115470D02*
X17292880Y-7173820D01*
X16623188Y-7959372D02*
X16533714Y-7973583D01*
X15477035Y-7612395D02*
G75*
G02*
X15550771Y-7594525I138265J-409465D01*
G01*
X16533714Y-7973583D02*
G75*
G02*
X16466253Y-7977970I-67444J516203D01*
G01*
X14774130Y-7970541D02*
X14686197Y-7968931D01*
X19149505Y-8144655D02*
G75*
G02*
X19272870Y-7935801I1784475J-913185D01*
G01*
X14561631Y-7946782D02*
X14516405Y-7932334D01*
X15613114Y-10259986D02*
X15626634Y-10275220D01*
X15666005Y-10237874D02*
X15701698Y-10195533D01*
X12970655Y-8970125D02*
G75*
G02*
X13167880Y-8970957I89125J-2251205D01*
G01*
X17965675Y-8981026D02*
X18237687Y-8972706D01*
X15005381Y-7948336D02*
G75*
G02*
X14959217Y-7958784I-128651J461216D01*
G01*
X18921005Y-7116929D02*
X17292880Y-7115470D01*
X12340142Y-9051489D02*
G75*
G02*
X12318514Y-9042528I-2852J23699D01*
G01*
X15701698Y-10195533D02*
X15762688Y-10121237D01*
X19793446Y-7418822D02*
G75*
G02*
X20004957Y-7292901I1018394J-1469998D01*
G01*
X17150661Y-7626585D02*
G75*
G02*
X16986261Y-7802326I-667551J459705D01*
G01*
X12289898Y-8720911D02*
G75*
G02*
X12305135Y-8943971I-1687678J-227339D01*
G01*
X12381892Y-9041816D02*
G75*
G02*
X12340141Y-9051488I-65592J188196D01*
G01*
X12381892Y-9041816D02*
G75*
G02*
X12541981Y-9007248I220128J-631454D01*
G01*
X16986261Y-7802326D02*
G75*
G02*
X16779520Y-7919305I-478191J603946D01*
G01*
X11162616Y-7250564D02*
G75*
G02*
X11519567Y-7454902I-742166J-1710406D01*
G01*
X14437827Y-9291669D02*
G75*
G02*
X14833090Y-9520284I-1651677J-3311661D01*
G01*
X15580365Y-10219120D02*
X15597600Y-10241353D01*
X18949467Y-9022834D02*
X18952030Y-8984220D01*
X14162284Y-7698049D02*
G75*
G02*
X14086958Y-7593510I445156J400169D01*
G01*
X19824378Y-7118273D02*
X18921005Y-7116929D01*
X15630380Y-10276662D02*
G75*
G02*
X15626632Y-10275222I-390J4582D01*
G01*
X10703864Y-7119317D02*
X10737155Y-7126430D01*
X18237687Y-8972706D02*
X18500211Y-8984758D01*
X10675928Y-7112726D02*
X10703864Y-7119317D01*
X11519566Y-7454903D02*
G75*
G02*
X11829997Y-7737506I-1147266J-1572037D01*
G01*
X16466253Y-7977970D02*
G75*
G02*
X16385749Y-7972009I-3J546560D01*
G01*
X10737155Y-7126430D02*
X10808238Y-7139854D01*
X15404921Y-7636745D02*
X15356840Y-7117080D01*
X10689401Y-7106530D02*
X10671200Y-7107321D01*
X15142509Y-7897615D02*
X15071795Y-7926707D01*
X11787752Y-7113235D02*
X11262351Y-7111745D01*
X14686191Y-7968931D02*
G75*
G02*
X14631096Y-7963938I16349J486921D01*
G01*
X20004957Y-7292900D02*
G75*
G02*
X20226473Y-7199977I764793J-1512670D01*
G01*
X12318514Y-9042528D02*
G75*
G02*
X12307635Y-9014171I40536J31818D01*
G01*
X16385749Y-7972009D02*
G75*
G02*
X16293141Y-7953784I149581J1004479D01*
G01*
X15890240Y-7112000D02*
X15837273Y-7626449D01*
X19019300Y-8489246D02*
G75*
G02*
X19057489Y-8359220I1277930J-304704D01*
G01*
X13167880Y-8970957D02*
G75*
G02*
X13617594Y-9021104I-172290J-3586663D01*
G01*
X18944470Y-9038077D02*
G75*
G02*
X18934353Y-9044263I-11700J7767D01*
G01*
X15634429Y-10274591D02*
X15666005Y-10237874D01*
X18965129Y-8810740D02*
X18988063Y-8642856D01*
X17256507Y-7409902D02*
G75*
G02*
X17150660Y-7626584I-776427J245083D01*
G01*
X18736575Y-9017190D02*
X18792023Y-9027343D01*
X15229934Y-7847257D02*
G75*
G02*
X15200624Y-7869555I-62784J52117D01*
G01*
X16024130Y-7846720D02*
X15890240Y-7112000D01*
X10675928Y-7112726D02*
G75*
G02*
X10670378Y-7109635I2672J11326D01*
G01*
X12396005Y-7114102D02*
X11787752Y-7113235D01*
X15033553Y-9667263D02*
X15180133Y-9794676D01*
X10808238Y-7139854D02*
G75*
G02*
X11162616Y-7250564I-340118J-1711226D01*
G01*
X18500211Y-8984758D02*
G75*
G02*
X18736575Y-9017190I-195171J-2299902D01*
G01*
X14264005Y-7793436D02*
G75*
G02*
X14162284Y-7698049I506895J642486D01*
G01*
X15071795Y-7926707D02*
X15005381Y-7948336D01*
X14036822Y-9126533D02*
G75*
G02*
X14437827Y-9291669I-944282J-2862477D01*
G01*
X18792023Y-9027343D02*
X18844755Y-9036175D01*
X15229934Y-7847257D02*
X15356840Y-7117080D01*
X12174496Y-8281388D02*
G75*
G02*
X12245514Y-8496596I-1698906J-679952D01*
G01*
X19057489Y-8359220D02*
G75*
G02*
X19149505Y-8144655I1624541J-569670D01*
G01*
X14908286Y-7965671D02*
X14848315Y-7969489D01*
X13976272Y-7268484D02*
G75*
G02*
X13967879Y-7169430I580338J99055D01*
G01*
X14833090Y-9520285D02*
G75*
G02*
X15033554Y-9667262I-1477551J-2225435D01*
G01*
X14922499Y-7963749D02*
X14908286Y-7965671D01*
X15630827Y-7588458D02*
G75*
G02*
X15710551Y-7594305I723J-536562D01*
G01*
X15634429Y-10274591D02*
G75*
G02*
X15630380Y-10276662I-4559J3921D01*
G01*
X14040199Y-7495919D02*
G75*
G02*
X14001933Y-7382496I1077741J426769D01*
G01*
X18844755Y-9036175D02*
X18889422Y-9042952D01*
X14516405Y-7932334D02*
G75*
G02*
X14384666Y-7873471I287235J819694D01*
G01*
X12245514Y-8496596D02*
G75*
G02*
X12289898Y-8720911I-1800784J-472864D01*
G01*
X11829996Y-7737507D02*
G75*
G02*
X12079720Y-8085521I-1578486J-1396273D01*
G01*
X14848315Y-7969489D02*
X14774130Y-7970541D01*
X14631096Y-7963938D02*
G75*
G02*
X14561631Y-7946782I55354J373348D01*
G01*
X16628236Y-9393726D02*
G75*
G02*
X17156088Y-9147548I1639864J-2827174D01*
G01*
X15477035Y-7612395D02*
X15404921Y-7636745D01*
X17292880Y-7173820D02*
G75*
G02*
X17256507Y-7409903I-784350J0D01*
G01*
X15550771Y-7594525D02*
G75*
G02*
X15630827Y-7588458I80779J-534715D01*
G01*
X14384666Y-7873471D02*
G75*
G02*
X14264005Y-7793436I424734J771301D01*
G01*
X20226473Y-7199977D02*
G75*
G02*
X20467880Y-7134893I637107J-1882873D01*
G01*
X10744072Y-7108002D02*
X10713798Y-7106638D01*
X18952030Y-8984220D02*
X18965129Y-8810740D01*
X20467032Y-7125520D02*
X20239427Y-7121114D01*
X15237327Y-9844392D02*
X15425901Y-10034143D01*
X15425901Y-10034143D02*
G75*
G02*
X15580364Y-10219120I-1772441J-1637037D01*
G01*
X16147494Y-9732580D02*
G75*
G02*
X16628236Y-9393727I2152746J-2543720D01*
G01*
X17925473Y-8985396D02*
X17965675Y-8981026D01*
X16779520Y-7919305D02*
G75*
G02*
X16680560Y-7946973I-207200J550275D01*
G01*
X10670378Y-7109635D02*
G75*
G02*
X10671200Y-7107321I952J965D01*
G01*
X18911630Y-9045046D02*
G75*
G02*
X18889422Y-9042952I10090J225826D01*
G01*
X15200624Y-7869554D02*
X15142509Y-7897615D01*
X18949467Y-9022834D02*
G75*
G02*
X18944468Y-9038075I-30077J1424D01*
G01*
X14001933Y-7382496D02*
G75*
G02*
X13976272Y-7268484I1075097J301867D01*
G01*
X15837273Y-7626449D02*
G75*
G02*
X15783300Y-7611983I80587J408599D01*
G01*
X12079721Y-8085520D02*
G75*
G02*
X12174497Y-8281387I-1350271J-774230D01*
G01*
X14959213Y-7958784D02*
X14922499Y-7963749D01*
X15597600Y-10241353D02*
X15613114Y-10259986D01*
X19272870Y-7935801D02*
G75*
G02*
X19419720Y-7744602I1641880J-1109049D01*
G01*
X14086957Y-7593510D02*
G75*
G02*
X14040199Y-7495919I674933J383371D01*
G01*
X17156087Y-9147547D02*
G75*
G02*
X17925473Y-8985396I962303J-2659593D01*
G01*
X15710551Y-7594305D02*
G75*
G02*
X15783300Y-7611984I-60931J-409255D01*
G01*
X16293141Y-7953784D02*
G75*
G02*
X16200203Y-7926396I252469J1028094D01*
G01*
X20239427Y-7121114D02*
X19824378Y-7118273D01*
X12305135Y-8943971D02*
X12307636Y-9014171D01*
X10713798Y-7106638D02*
X10689401Y-7106530D01*
X10805472Y-7109944D02*
X10744072Y-7108002D01*
X15180133Y-9794676D02*
X15237327Y-9844392D01*
X13967880Y-7115470D02*
X12396005Y-7114102D01*
X16118448Y-7892562D02*
X16024130Y-7846720D01*
X18988063Y-8642856D02*
X19019300Y-8489246D01*
X15762688Y-10121237D02*
G75*
G02*
X16147494Y-9732581I2393952J-1985413D01*
G01*
X16680560Y-7946973D02*
X16623188Y-7959372D01*
X12541981Y-9007247D02*
X12733435Y-8985504D01*
X13617594Y-9021104D02*
G75*
G02*
X14036822Y-9126533I-518464J-2947836D01*
G01*
X12733435Y-8985504D02*
X12970655Y-8970125D01*
X11262351Y-7111745D02*
X10805472Y-7109944D01*
X18934353Y-9044264D02*
G75*
G02*
X18911630Y-9045045I-16293J143054D01*
G01*
X16200203Y-7926396D02*
G75*
G02*
X16118448Y-7892562I240547J696936D01*
G01*
X19419720Y-7744602D02*
G75*
G02*
X19581924Y-7582827I1220200J-1061228D01*
G01*
X20467032Y-7125520D02*
G75*
G02*
X20467879Y-7134887I-92J-4730D01*
G01*
X13967880Y-7169430D02*
X13967880Y-7115470D01*
X19581923Y-7582826D02*
G75*
G02*
X19793446Y-7418823I1632677J-1887334D01*
G01*
D11*
X10924502Y-10594413D02*
X10924502Y-10394413D01*
X10924502Y-10394413D02*
X10972121Y-10394413D01*
X10972121Y-10394413D02*
X11000692Y-10403937D01*
X11000692Y-10403937D02*
X11019740Y-10422984D01*
X11019740Y-10422984D02*
X11029263Y-10442032D01*
X11029263Y-10442032D02*
X11038787Y-10480127D01*
X11038787Y-10480127D02*
X11038787Y-10508699D01*
X11038787Y-10508699D02*
X11029263Y-10546794D01*
X11029263Y-10546794D02*
X11019740Y-10565841D01*
X11019740Y-10565841D02*
X11000692Y-10584889D01*
X11000692Y-10584889D02*
X10972121Y-10594413D01*
X10972121Y-10594413D02*
X10924502Y-10594413D01*
X11124502Y-10594413D02*
X11124502Y-10461079D01*
X11124502Y-10499175D02*
X11134025Y-10480127D01*
X11134025Y-10480127D02*
X11143549Y-10470603D01*
X11143549Y-10470603D02*
X11162597Y-10461079D01*
X11162597Y-10461079D02*
X11181644Y-10461079D01*
X11248311Y-10594413D02*
X11248311Y-10461079D01*
X11248311Y-10394413D02*
X11238787Y-10403937D01*
X11238787Y-10403937D02*
X11248311Y-10413460D01*
X11248311Y-10413460D02*
X11257835Y-10403937D01*
X11257835Y-10403937D02*
X11248311Y-10394413D01*
X11248311Y-10394413D02*
X11248311Y-10413460D01*
X11372120Y-10594413D02*
X11353073Y-10584889D01*
X11353073Y-10584889D02*
X11343549Y-10565841D01*
X11343549Y-10565841D02*
X11343549Y-10394413D01*
X11476882Y-10594413D02*
X11457835Y-10584889D01*
X11457835Y-10584889D02*
X11448311Y-10565841D01*
X11448311Y-10565841D02*
X11448311Y-10394413D01*
X11705454Y-10594413D02*
X11705454Y-10394413D01*
X11705454Y-10394413D02*
X11772121Y-10537270D01*
X11772121Y-10537270D02*
X11838787Y-10394413D01*
X11838787Y-10394413D02*
X11838787Y-10594413D01*
X12019740Y-10594413D02*
X12019740Y-10489651D01*
X12019740Y-10489651D02*
X12010216Y-10470603D01*
X12010216Y-10470603D02*
X11991168Y-10461079D01*
X11991168Y-10461079D02*
X11953073Y-10461079D01*
X11953073Y-10461079D02*
X11934025Y-10470603D01*
X12019740Y-10584889D02*
X12000692Y-10594413D01*
X12000692Y-10594413D02*
X11953073Y-10594413D01*
X11953073Y-10594413D02*
X11934025Y-10584889D01*
X11934025Y-10584889D02*
X11924501Y-10565841D01*
X11924501Y-10565841D02*
X11924501Y-10546794D01*
X11924501Y-10546794D02*
X11934025Y-10527746D01*
X11934025Y-10527746D02*
X11953073Y-10518222D01*
X11953073Y-10518222D02*
X12000692Y-10518222D01*
X12000692Y-10518222D02*
X12019740Y-10508699D01*
X12114978Y-10461079D02*
X12114978Y-10661079D01*
X12114978Y-10470603D02*
X12134025Y-10461079D01*
X12134025Y-10461079D02*
X12172121Y-10461079D01*
X12172121Y-10461079D02*
X12191168Y-10470603D01*
X12191168Y-10470603D02*
X12200692Y-10480127D01*
X12200692Y-10480127D02*
X12210216Y-10499175D01*
X12210216Y-10499175D02*
X12210216Y-10556318D01*
X12210216Y-10556318D02*
X12200692Y-10575365D01*
X12200692Y-10575365D02*
X12191168Y-10584889D01*
X12191168Y-10584889D02*
X12172121Y-10594413D01*
X12172121Y-10594413D02*
X12134025Y-10594413D01*
X12134025Y-10594413D02*
X12114978Y-10584889D01*
X12295930Y-10575365D02*
X12305454Y-10584889D01*
X12305454Y-10584889D02*
X12295930Y-10594413D01*
X12295930Y-10594413D02*
X12286406Y-10584889D01*
X12286406Y-10584889D02*
X12295930Y-10575365D01*
X12295930Y-10575365D02*
X12295930Y-10594413D01*
X12295930Y-10470603D02*
X12305454Y-10480127D01*
X12305454Y-10480127D02*
X12295930Y-10489651D01*
X12295930Y-10489651D02*
X12286406Y-10480127D01*
X12286406Y-10480127D02*
X12295930Y-10470603D01*
X12295930Y-10470603D02*
X12295930Y-10489651D01*
M02*
