M48
; DRILL file {KiCad 9.0.7} date 2026-04-09T14:49:38+0530
; FORMAT={-:-/ absolute / metric / decimal}
; #@! TF.CreationDate,2026-04-09T14:49:38+05:30
; #@! TF.GenerationSoftware,Kicad,Pcbnew,9.0.7
; #@! TF.FileFunction,Plated,1,2,PTH
FMAT,2
METRIC
; #@! TA.AperFunction,Plated,PTH,ComponentDrill
T1C0.800
; #@! TA.AperFunction,Plated,PTH,ComponentDrill
T2C0.900
; #@! TA.AperFunction,Plated,PTH,ComponentDrill
T3C1.000
%
G90
G05
T1
X135.341Y-85.903
X137.341Y-85.903
X141.021Y-81.839
X148.641Y-81.839
X152.359Y-87.456
X152.359Y-89.996
X152.359Y-92.536
X152.359Y-95.076
X152.451Y-83.972
X159.979Y-87.456
X159.979Y-89.996
X159.979Y-92.536
X159.979Y-95.076
X160.071Y-83.972
X163.728Y-81.89
X171.348Y-81.89
X174.276Y-85.242
X176.276Y-85.242
T2
X119.532Y-74.016
X122.072Y-74.016
X125.425Y-86.208
X127.965Y-86.208
X130.251Y-80.67
X132.791Y-80.67
X135.484Y-74.27
X138.024Y-74.27
X141.376Y-86.97
X143.916Y-86.97
X168.148Y-87.173
X170.688Y-87.173
X174.854Y-74.473
X177.394Y-74.473
X178.968Y-80.721
X181.508Y-80.721
X184.607Y-86.716
X187.147Y-86.716
X190.805Y-74.168
X193.345Y-74.168
T3
X129.337Y-74.828
X185.522Y-74.32
M30
